# xmcd
#
# Track frame offsets:
#	150
#	18586
#	36965
#	57150
#	71162
#	92293
#	114740
#	128770
#	150329
#	163665
#	182194
#	202727
#
# Disc length: 2841 seconds
#
# Revision: 0
# Processed by: cddbd v1.5.2PL0 Copyright (c) Steve Scherf et al.
# Submitted via: dBpowerAMP V4.0
#
DISCID=980b170c
DTITLE=Summer Hullender - Footsteps
DYEAR=2010
DGENRE=Country
TTITLE0=New Song
TTITLE1=Footsteps
TTITLE2=Heaven's Just as Real
TTITLE3=When the Holly Ghost Comes Down
TTITLE4=Closest Friend
TTITLE5=His Eye is on the Sparrow
TTITLE6=Prey a Little Harder
TTITLE7=Cry Holy
TTITLE8=Try a Little Kindness
TTITLE9=Lowest Valley
TTITLE10=Friend in Daddy
TTITLE11=When We All Get to Heaven
EXTD=
EXTT0=
EXTT1=
EXTT2=
EXTT3=
EXTT4=
EXTT5=
EXTT6=
EXTT7=
EXTT8=
EXTT9=
EXTT10=
EXTT11=
PLAYORDER=
